# Blender v2.71 (sub 0) OBJ File: ''
# www.blender.org
o Grid
v -4.133338 -0.000001 4.133338
v -3.214818 -0.000001 4.133338
v -3.214818 -0.000001 3.214818
v -2.296299 -0.000001 4.133338
v -2.296299 -0.000001 3.214818
v -1.377779 -0.000001 4.133338
v -1.377779 -0.000001 3.214818
v -0.459260 -0.000001 4.133338
v -0.459260 -0.000001 3.214818
v 0.459260 -0.000001 4.133338
v 0.459260 -0.000001 3.214818
v 1.377779 -0.000001 4.133338
v 1.377779 -0.000001 3.214818
v 2.296299 -0.000001 4.133338
v 2.296299 -0.000001 3.214818
v 3.214818 -0.000001 4.133338
v 3.214818 -0.000001 3.214818
v 4.133338 -0.000001 4.133338
v 4.133338 -0.000001 3.214818
v -4.133338 -0.000001 3.214818
v -3.214818 -0.000000 2.296299
v -2.296299 -0.000000 2.560300
v -1.377779 -0.000000 2.296299
v -0.210091 -0.000000 1.945615
v 0.459260 -0.000000 2.296299
v 1.377779 -0.000000 2.141752
v 2.296299 -0.000000 2.296299
v 3.214818 -0.000000 2.296299
v 4.133338 -0.000000 2.296299
v -4.133338 -0.000000 2.296299
v -2.935217 -0.000000 1.377779
v -2.296299 -0.000000 2.107880
v -1.377779 -0.000000 1.565597
v -0.459260 -0.000000 1.377779
v 1.887367 -0.000000 1.188227
v 2.958943 -0.000000 1.176350
v 4.133338 -0.000000 1.377779
v -4.133338 -0.000000 1.377779
v -2.784627 -0.000000 0.459260
v -1.200068 -0.000000 0.459260
v -0.121841 -0.000000 0.459260
v 2.624562 -0.000000 0.459260
v 4.133338 -0.000000 0.459260
v -4.133338 -0.000000 0.459260
v -2.905519 0.000000 -0.459260
v -0.459260 0.000000 -0.459260
v 4.133338 0.000000 -0.459260
v -4.133338 0.000000 -0.459260
v -3.214818 0.000000 -1.377779
v -0.937243 0.000000 -0.459260
v -0.459260 0.000000 -1.377779
v 0.459260 0.000000 -0.459260
v 0.459260 0.000000 -1.377779
v 2.956991 0.000000 -0.459260
v 4.133338 0.000000 -1.377779
v -4.133338 0.000000 -1.377779
v -3.214818 0.000000 -2.296299
v -2.296299 0.000000 -1.724453
v -2.296299 0.000000 -2.296299
v -1.377779 0.000000 -1.565274
v -1.377779 0.000000 -2.296299
v -0.459260 0.000000 -2.296299
v 0.459260 0.000000 -2.296299
v 1.377779 0.000000 -1.624419
v 1.377779 0.000000 -2.296299
v 2.296299 0.000000 -1.182292
v 2.296299 0.000000 -2.296299
v 3.214818 0.000000 -1.063060
v 3.214818 0.000000 -2.296299
v 4.133338 0.000000 -2.296299
v -4.133338 0.000000 -2.296299
v -3.214818 0.000001 -3.214818
v -2.296299 0.000001 -3.214818
v -1.377779 0.000001 -3.214818
v -0.459260 0.000001 -3.214818
v 0.459260 0.000001 -3.214818
v 1.377779 0.000001 -3.214818
v 2.296299 0.000001 -3.214818
v 3.214818 0.000001 -3.214818
v 4.133338 0.000001 -3.214818
v -4.133338 0.000001 -3.214818
v -3.214818 0.000001 -4.133338
v -2.296299 0.000001 -4.133338
v -1.377779 0.000001 -4.133338
v -0.459260 0.000001 -4.133338
v 0.459260 0.000001 -4.133338
v 1.377779 0.000001 -4.133338
v 2.296299 0.000001 -4.133338
v 3.214818 0.000001 -4.133338
v 4.133338 0.000001 -4.133338
v -4.133338 0.000001 -4.133338
vt 0.000000 1.000000
vt 0.000000 0.888889
vt 0.111111 0.888889
vt 0.000000 0.777778
vt 0.111111 0.777778
vt 0.000000 0.666667
vt 0.111111 0.666667
vt 0.000000 0.555556
vt 0.111111 0.555556
vt 0.000000 0.444445
vt 0.111111 0.444444
vt 0.000000 0.333333
vt 0.111111 0.333333
vt 0.000000 0.222222
vt 0.111111 0.222222
vt 0.000000 0.111111
vt 0.111111 0.111111
vt 0.000000 0.000000
vt 0.111111 0.000000
vt 0.111111 1.000000
vt 0.222222 0.888889
vt 0.190287 0.777778
vt 0.222222 0.666667
vt 0.264644 0.525414
vt 0.222222 0.444444
vt 0.240917 0.333333
vt 0.222222 0.222222
vt 0.222222 0.111111
vt 0.222222 0.000000
vt 0.222222 1.000000
vt 0.333333 0.855066
vt 0.245015 0.777778
vt 0.310614 0.666667
vt 0.333333 0.555556
vt 0.356263 0.271690
vt 0.357700 0.142064
vt 0.333333 0.000000
vt 0.333333 1.000000
vt 0.444445 0.836850
vt 0.444444 0.645169
vt 0.444444 0.514739
vt 0.444444 0.182513
vt 0.444444 0.000000
vt 0.444445 1.000000
vt 0.555556 0.851474
vt 0.555556 0.555556
vt 0.555556 0.000000
vt 0.555556 1.000000
vt 0.666667 0.888889
vt 0.555556 0.613376
vt 0.666667 0.555556
vt 0.555556 0.444444
vt 0.666667 0.444444
vt 0.555556 0.142300
vt 0.666667 0.000000
vt 0.666667 1.000000
vt 0.777778 0.888889
vt 0.708603 0.777778
vt 0.777778 0.777778
vt 0.689347 0.666667
vt 0.777778 0.666667
vt 0.777778 0.555556
vt 0.777778 0.444444
vt 0.696502 0.333333
vt 0.777778 0.333333
vt 0.643019 0.222222
vt 0.777778 0.222222
vt 0.628596 0.111111
vt 0.777778 0.111111
vt 0.777778 0.000000
vt 0.777778 1.000000
vt 0.888889 0.888889
vt 0.888889 0.777778
vt 0.888889 0.666667
vt 0.888889 0.555555
vt 0.888889 0.444444
vt 0.888889 0.333333
vt 0.888889 0.222222
vt 0.888889 0.111111
vt 0.888889 0.000000
vt 0.888889 1.000000
vt 1.000000 0.888889
vt 1.000000 0.777778
vt 1.000000 0.666667
vt 1.000000 0.555555
vt 1.000000 0.444444
vt 1.000000 0.333333
vt 1.000000 0.222222
vt 1.000000 0.111111
vt 1.000000 0.000000
vt 1.000000 1.000000
vn 0.000000 1.000000 0.000000
s 1
f 1/1/1 2/2/1 3/3/1
f 2/2/1 4/4/1 5/5/1
f 4/4/1 6/6/1 7/7/1
f 6/6/1 8/8/1 9/9/1
f 8/8/1 10/10/1 11/11/1
f 10/10/1 12/12/1 13/13/1
f 12/12/1 14/14/1 15/15/1
f 14/14/1 16/16/1 17/17/1
f 16/16/1 18/18/1 19/19/1
f 20/20/1 3/3/1 21/21/1
f 3/3/1 5/5/1 22/22/1
f 5/5/1 7/7/1 23/23/1
f 7/7/1 9/9/1 24/24/1
f 9/9/1 11/11/1 25/25/1
f 11/11/1 13/13/1 26/26/1
f 13/13/1 15/15/1 27/27/1
f 15/15/1 17/17/1 28/28/1
f 17/17/1 19/19/1 29/29/1
f 30/30/1 21/21/1 31/31/1
f 21/21/1 22/22/1 32/32/1
f 22/22/1 23/23/1 33/33/1
f 23/23/1 24/24/1 34/34/1
f 26/26/1 27/27/1 35/35/1
f 27/27/1 28/28/1 36/36/1
f 28/28/1 29/29/1 37/37/1
f 38/38/1 31/31/1 39/39/1
f 32/32/1 33/33/1 40/40/1
f 33/33/1 34/34/1 41/41/1
f 35/35/1 36/36/1 42/42/1
f 36/36/1 37/37/1 43/43/1
f 44/44/1 39/39/1 45/45/1
f 40/40/1 41/41/1 46/46/1
f 42/42/1 43/43/1 47/47/1
f 48/48/1 45/45/1 49/49/1
f 50/50/1 46/46/1 51/51/1
f 46/46/1 52/52/1 53/53/1
f 54/54/1 47/47/1 55/55/1
f 56/56/1 49/49/1 57/57/1
f 49/49/1 58/58/1 59/59/1
f 58/58/1 60/60/1 61/61/1
f 60/60/1 51/51/1 62/62/1
f 51/51/1 53/53/1 63/63/1
f 53/53/1 64/64/1 65/65/1
f 64/64/1 66/66/1 67/67/1
f 66/66/1 68/68/1 69/69/1
f 68/68/1 55/55/1 70/70/1
f 71/71/1 57/57/1 72/72/1
f 57/57/1 59/59/1 73/73/1
f 59/59/1 61/61/1 74/74/1
f 61/61/1 62/62/1 75/75/1
f 62/62/1 63/63/1 76/76/1
f 63/63/1 65/65/1 77/77/1
f 65/65/1 67/67/1 78/78/1
f 67/67/1 69/69/1 79/79/1
f 69/69/1 70/70/1 80/80/1
f 81/81/1 72/72/1 82/82/1
f 72/72/1 73/73/1 83/83/1
f 73/73/1 74/74/1 84/84/1
f 74/74/1 75/75/1 85/85/1
f 75/75/1 76/76/1 86/86/1
f 76/76/1 77/77/1 87/87/1
f 77/77/1 78/78/1 88/88/1
f 78/78/1 79/79/1 89/89/1
f 79/79/1 80/80/1 90/90/1
f 20/20/1 1/1/1 3/3/1
f 3/3/1 2/2/1 5/5/1
f 5/5/1 4/4/1 7/7/1
f 7/7/1 6/6/1 9/9/1
f 9/9/1 8/8/1 11/11/1
f 11/11/1 10/10/1 13/13/1
f 13/13/1 12/12/1 15/15/1
f 15/15/1 14/14/1 17/17/1
f 17/17/1 16/16/1 19/19/1
f 30/30/1 20/20/1 21/21/1
f 21/21/1 3/3/1 22/22/1
f 22/22/1 5/5/1 23/23/1
f 23/23/1 7/7/1 24/24/1
f 24/24/1 9/9/1 25/25/1
f 25/25/1 11/11/1 26/26/1
f 26/26/1 13/13/1 27/27/1
f 27/27/1 15/15/1 28/28/1
f 28/28/1 17/17/1 29/29/1
f 38/38/1 30/30/1 31/31/1
f 31/31/1 21/21/1 32/32/1
f 32/32/1 22/22/1 33/33/1
f 33/33/1 23/23/1 34/34/1
f 35/35/1 27/27/1 36/36/1
f 36/36/1 28/28/1 37/37/1
f 44/44/1 38/38/1 39/39/1
f 40/40/1 33/33/1 41/41/1
f 42/42/1 36/36/1 43/43/1
f 48/48/1 44/44/1 45/45/1
f 50/50/1 40/40/1 46/46/1
f 46/46/1 41/41/1 52/52/1
f 54/54/1 42/42/1 47/47/1
f 56/56/1 48/48/1 49/49/1
f 49/49/1 45/45/1 58/58/1
f 60/60/1 50/50/1 51/51/1
f 51/51/1 46/46/1 53/53/1
f 53/53/1 52/52/1 64/64/1
f 68/68/1 54/54/1 55/55/1
f 71/71/1 56/56/1 57/57/1
f 57/57/1 49/49/1 59/59/1
f 59/59/1 58/58/1 61/61/1
f 61/61/1 60/60/1 62/62/1
f 62/62/1 51/51/1 63/63/1
f 63/63/1 53/53/1 65/65/1
f 65/65/1 64/64/1 67/67/1
f 67/67/1 66/66/1 69/69/1
f 69/69/1 68/68/1 70/70/1
f 81/81/1 71/71/1 72/72/1
f 72/72/1 57/57/1 73/73/1
f 73/73/1 59/59/1 74/74/1
f 74/74/1 61/61/1 75/75/1
f 75/75/1 62/62/1 76/76/1
f 76/76/1 63/63/1 77/77/1
f 77/77/1 65/65/1 78/78/1
f 78/78/1 67/67/1 79/79/1
f 79/79/1 69/69/1 80/80/1
f 91/91/1 81/81/1 82/82/1
f 82/82/1 72/72/1 83/83/1
f 83/83/1 73/73/1 84/84/1
f 84/84/1 74/74/1 85/85/1
f 85/85/1 75/75/1 86/86/1
f 86/86/1 76/76/1 87/87/1
f 87/87/1 77/77/1 88/88/1
f 88/88/1 78/78/1 89/89/1
f 89/89/1 79/79/1 90/90/1
