# Blender v2.71 (sub 0) OBJ File: ''
# www.blender.org
o Grid_Grid.003
v 3.103389 0.000000 -2.506428
v 12.986518 0.000000 -6.926321
v -4.429113 0.000000 10.727275
v -4.007556 0.000000 12.901060
v 5.050324 0.000000 10.685565
v 1.593065 0.000000 29.801489
v 17.907520 0.000000 18.482857
v 20.421934 0.000000 16.118528
v 16.468132 0.000000 10.852853
v 21.778090 0.000000 -7.869902
v 5.488819 0.000000 -20.637917
v 0.524414 0.000000 -19.965471
v -9.666298 0.000000 -27.834061
v -16.617846 0.000000 12.073209
v -13.056204 0.000000 19.982056
v 24.635958 0.000000 9.317201
v 22.280727 0.000000 22.700624
v 14.664295 0.000000 48.364273
v -7.098603 0.000000 38.739975
v -25.120905 0.000000 -37.797237
v -28.810003 0.000000 11.743719
v -22.354675 0.000000 25.188343
v 8.762104 0.000000 -1.677823
v -11.034149 0.000000 -2.135476
v 5.055274 0.000000 7.063839
v 13.898832 0.000000 9.979906
v 17.342722 0.000000 5.696875
v -3.101554 0.000000 28.567099
v 11.584043 0.000000 20.618959
v 17.756731 0.000000 23.810219
v 20.481688 0.000000 20.395592
v 27.958200 0.000000 9.949254
v 22.302568 0.000000 39.626644
v -14.257240 0.000000 -23.639168
v -8.843503 0.000000 -29.877304
v -23.202078 0.000000 -41.517334
v -24.725391 0.000000 14.296008
v -25.768456 0.000000 19.150822
v -2.820576 0.000000 -0.316568
v -1.101738 0.000000 -2.290414
v 7.433754 0.000000 -0.360265
v 14.616908 0.000000 -1.040038
v -2.646793 0.000000 -3.590465
v -5.522592 0.000000 1.025100
v -3.690495 0.000000 4.257502
v 2.504372 0.000000 12.563745
v 2.478239 0.000000 -11.394693
v 14.758180 0.000000 4.968697
v 0.947116 0.000000 16.289865
v -7.440565 0.000000 17.825716
v 2.345946 0.000000 21.441244
v 7.328292 0.000000 15.245595
v 4.339478 0.000000 21.094534
v 13.176810 0.000000 14.496571
v 14.039155 0.000000 -15.350397
v 15.483455 0.000000 -7.337610
v 22.495541 0.000000 -0.909626
v -4.135016 0.000000 -33.230865
v -3.492332 0.000000 -20.723537
v -13.284845 0.000000 -22.844498
v -11.667091 0.000000 -30.500334
v -13.506909 0.000000 11.146217
v -13.247977 0.000000 1.329368
v -11.278505 0.000000 16.274071
v 11.994196 0.000000 30.212019
v 11.506769 0.000000 48.018711
v 5.178711 0.000000 40.928783
v -6.792127 0.000000 34.034283
v -10.649040 0.000000 33.211121
v -17.811646 0.000000 -37.452892
v -13.471793 0.000000 -38.548084
v -23.042978 0.000000 -20.127264
v -23.902853 0.000000 -28.383802
v -9.580812 0.000000 -36.989925
v -8.626820 0.000000 -48.732391
v -14.212387 0.000000 -49.967579
v -23.231003 0.000000 -45.151810
v -26.972528 0.000000 -39.861057
v -26.492380 0.000000 -14.492690
v -30.784184 0.000000 -16.611303
v -25.945925 0.000000 15.818374
v -26.176466 0.000000 16.930384
v -24.136402 0.000000 20.118238
v -27.167831 0.000000 27.838787
v -11.615544 0.000000 -40.543961
v -2.450732 0.000000 1.533194
v 9.923706 0.000000 4.205443
v 13.630347 0.000000 3.036306
v 1.222572 0.000000 -4.027116
v -5.148199 0.000000 -1.816820
v -6.586576 0.000000 -9.043489
v -11.666298 0.000000 4.175927
v -9.910918 0.000000 7.945402
v 10.703013 0.000000 6.479825
v 4.703102 0.000000 -16.129631
v -8.225991 0.000000 25.226082
v 11.602554 0.000000 28.241140
v 14.616799 0.000000 17.349283
v 14.872958 0.000000 15.538363
v 15.692643 0.000000 20.944067
v 18.772873 0.000000 -6.009432
v 25.616501 0.000000 -0.415836
v -6.803468 0.000000 -19.487093
v -10.219805 0.000000 -14.342382
v -16.789061 0.000000 0.497046
v 24.395256 0.000000 16.386448
v 17.501797 0.000000 29.701494
v 26.776875 0.000000 28.056423
v 18.359146 0.000000 45.609882
v 13.920897 0.000000 31.110237
v -21.935822 0.000000 -33.696766
v -20.730936 0.000000 -19.401478
v -24.132111 0.000000 -23.273977
v -15.912730 0.000000 -41.728642
v -32.851131 0.000000 3.960414
v -20.612131 0.000000 4.553958
v -29.868441 0.000000 17.465977
v -35.367989 0.000000 21.309647
v -34.287468 0.000000 25.882147
vt 0.286196 0.418999
vt 0.313470 0.540229
vt 0.256843 0.523184
vt 0.343216 0.479700
vt 0.248999 0.478962
vt 0.461678 0.385290
vt 0.467476 0.464544
vt 0.658518 0.500097
vt 0.564420 0.495957
vt 0.601140 0.421621
vt 0.529605 0.558123
vt 0.621323 0.604918
vt 0.528915 0.627254
vt 0.415265 0.637777
vt 0.518046 0.649629
vt 0.378433 0.614738
vt 0.296726 0.563208
vt 0.385308 0.576559
vt 0.239247 0.596027
vt 0.435431 0.332550
vt 0.285650 0.328869
vt 0.431607 0.284032
vt 0.192771 0.546496
vt 0.196763 0.601954
vt 0.473579 0.813593
vt 0.400737 0.731547
vt 0.563118 0.705908
vt 0.648171 0.735790
vt 0.561385 0.784908
vt 0.396644 0.820623
vt 0.240659 0.791424
vt 0.255587 0.711110
vt 0.242043 0.644552
vt 0.213695 0.672785
vt 0.151419 0.736882
vt 0.114695 0.697420
vt 0.159252 0.680540
vt 0.123855 0.652416
vt 0.247327 0.411483
vt 0.148371 0.397853
vt 0.192531 0.421291
vt 0.123612 0.470299
vt 0.073094 0.471528
vt 0.509165 0.297444
vt 0.608639 0.163565
vt 0.719925 0.656969
vt 0.734025 0.284693
vt 0.744869 0.535176
vt 0.627055 0.694444
vt 0.672293 0.643236
vt 0.016001 0.577791
vt 0.069982 0.575362
vt 0.318330 0.933335
vt 0.153395 0.999619
vt 0.099998 0.965881
vt 0.230655 0.811698
vt 0.517533 0.925907
vt 0.521700 0.875919
vt 0.584539 0.872157
vt 0.750995 0.277556
vt 0.892264 0.181333
vt 0.913306 0.239837
vt 0.907137 0.293986
vt 0.800831 0.000000
vt 0.927391 0.100518
vt 0.812020 0.089004
vt 1.000000 0.372686
vt 0.993334 0.592143
vt 0.927766 0.389548
vt 0.914205 0.669030
vt 0.844429 0.690727
vt 0.797802 0.582806
vt 0.785863 0.802511
vt 0.857222 0.836578
vt 0.974059 0.825026
vt 1.000000 0.778209
vt 0.434684 0.478176
vt 0.524570 0.508804
vt 0.515144 0.527829
vt 0.528095 0.474076
vt 0.564910 0.526387
vt 0.656441 0.567424
vt 0.235219 0.542114
vt 0.432845 0.679034
vt 0.333497 0.659898
vt 0.369739 0.725353
vt 0.213103 0.653371
vt 0.676986 0.204910
vt 0.686131 0.227494
vt 0.574419 0.294572
vt 0.669020 0.370400
vt 0.624636 0.311823
vt 0.687028 0.539437
vt 0.000000 0.770144
vt 0.081695 0.719423
vt 0.144158 0.799300
vt 0.048852 0.897794
vt 0.198329 0.818710
vt 0.833971 0.136489
vt 0.767144 0.119417
vt 0.883797 0.325765
vt 0.845681 0.330469
vt 0.741493 0.096016
vt 0.702352 0.130883
vt 0.950725 0.142172
vt 0.984097 0.122779
vt 0.862419 0.720342
vt 0.920030 0.730691
vt 0.823896 0.751342
vt 0.189706 0.709303
vt 0.723029 0.201940
vt 0.060232 0.650178
vt 0.204209 1.000000
vt 0.709744 0.005903
vt 0.934828 0.062248
vt 0.501059 0.485810
vt 0.361784 0.495279
vt 0.860892 0.708327
vt 0.851675 0.743225
vn 0.000000 1.000000 0.000000
s off
f 2/1/1 87/2/1 88/3/1
f 2/1/1 23/4/1 87/2/1
f 2/1/1 88/3/1 42/5/1
f 47/6/1 89/7/1 23/4/1
f 24/8/1 90/9/1 91/10/1
f 45/11/1 93/12/1 3/13/1
f 46/14/1 3/13/1 4/15/1
f 5/16/1 94/17/1 25/18/1
f 5/16/1 26/19/1 94/17/1
f 95/20/1 55/21/1 11/22/1
f 27/23/1 94/17/1 26/19/1
f 26/19/1 9/24/1 27/23/1
f 28/25/1 51/26/1 4/15/1
f 28/25/1 50/27/1 15/28/1
f 28/25/1 15/28/1 96/29/1
f 6/30/1 51/26/1 28/25/1
f 6/30/1 97/31/1 29/32/1
f 54/33/1 29/32/1 98/34/1
f 97/31/1 30/35/1 29/32/1
f 30/35/1 31/36/1 7/37/1
f 7/37/1 31/36/1 8/38/1
f 8/38/1 27/23/1 7/37/1
f 27/23/1 9/24/1 7/37/1
f 95/20/1 2/1/1 56/39/1
f 10/40/1 56/39/1 101/41/1
f 10/40/1 101/41/1 57/42/1
f 10/40/1 57/42/1 102/43/1
f 12/44/1 11/22/1 58/45/1
f 14/46/1 60/47/1 105/48/1
f 15/28/1 64/49/1 62/50/1
f 15/28/1 62/50/1 14/46/1
f 15/28/1 50/27/1 64/49/1
f 32/51/1 57/42/1 16/52/1
f 67/53/1 18/54/1 109/55/1
f 65/56/1 97/31/1 6/30/1
f 19/57/1 68/58/1 69/59/1
f 34/60/1 111/61/1 73/62/1
f 34/60/1 73/62/1 113/63/1
f 76/64/1 36/65/1 114/66/1
f 80/67/1 115/68/1 79/69/1
f 21/70/1 37/71/1 116/72/1
f 22/73/1 84/74/1 19/57/1
f 22/73/1 19/57/1 69/59/1
f 119/75/1 115/68/1 118/76/1
f 1/77/1 39/78/1 86/79/1
f 86/79/1 87/2/1 1/77/1
f 91/10/1 90/9/1 43/80/1
f 43/80/1 89/7/1 47/6/1
f 44/81/1 90/9/1 24/8/1
f 24/8/1 92/82/1 45/11/1
f 46/14/1 25/18/1 45/11/1
f 46/14/1 5/16/1 25/18/1
f 23/4/1 2/1/1 95/20/1
f 48/83/1 94/17/1 27/23/1
f 4/15/1 51/26/1 49/84/1
f 29/32/1 52/85/1 53/86/1
f 54/33/1 98/34/1 99/87/1
f 95/20/1 10/40/1 55/21/1
f 12/44/1 95/20/1 11/22/1
f 12/44/1 35/88/1 13/89/1
f 59/90/1 12/44/1 13/89/1
f 13/89/1 104/91/1 103/92/1
f 14/46/1 63/93/1 104/91/1
f 14/46/1 62/50/1 63/93/1
f 16/52/1 108/94/1 32/51/1
f 17/95/1 107/96/1 33/97/1
f 33/97/1 110/98/1 67/53/1
f 6/30/1 19/57/1 67/53/1
f 70/99/1 111/61/1 34/60/1
f 34/60/1 71/100/1 70/99/1
f 34/60/1 72/101/1 112/102/1
f 35/88/1 12/44/1 58/45/1
f 58/45/1 85/103/1 74/104/1
f 20/105/1 36/65/1 78/106/1
f 21/70/1 79/69/1 115/68/1
f 82/107/1 117/108/1 119/75/1
f 119/75/1 22/73/1 83/109/1
f 45/11/1 92/82/1 93/12/1
f 4/15/1 50/27/1 28/25/1
f 29/32/1 54/33/1 52/85/1
f 30/35/1 7/37/1 100/110/1
f 10/40/1 95/20/1 56/39/1
f 34/60/1 60/47/1 13/89/1
f 60/47/1 14/46/1 104/91/1
f 61/111/1 34/60/1 13/89/1
f 106/112/1 17/95/1 108/94/1
f 33/97/1 67/53/1 109/55/1
f 33/97/1 107/96/1 110/98/1
f 65/56/1 67/53/1 110/98/1
f 67/53/1 65/56/1 6/30/1
f 18/54/1 67/53/1 66/113/1
f 19/57/1 6/30/1 68/58/1
f 71/100/1 34/60/1 61/111/1
f 58/45/1 75/114/1 85/103/1
f 75/114/1 76/64/1 85/103/1
f 36/65/1 76/64/1 77/115/1
f 36/65/1 77/115/1 78/106/1
f 80/67/1 20/105/1 78/106/1
f 20/105/1 80/67/1 79/69/1
f 22/73/1 119/75/1 84/74/1
f 119/75/1 117/108/1 115/68/1
f 39/78/1 1/77/1 40/116/1
f 1/77/1 87/2/1 41/117/1
f 41/117/1 87/2/1 23/4/1
f 47/6/1 91/10/1 43/80/1
f 24/8/1 45/11/1 44/81/1
f 46/14/1 45/11/1 3/13/1
f 95/20/1 47/6/1 23/4/1
f 46/14/1 4/15/1 49/84/1
f 51/26/1 29/32/1 53/86/1
f 29/32/1 51/26/1 6/30/1
f 30/35/1 100/110/1 29/32/1
f 59/90/1 13/89/1 103/92/1
f 13/89/1 60/47/1 104/91/1
f 57/42/1 32/51/1 102/43/1
f 16/52/1 106/112/1 108/94/1
f 17/95/1 33/97/1 108/94/1
f 72/101/1 34/60/1 113/63/1
f 35/88/1 58/45/1 74/104/1
f 76/64/1 114/66/1 85/103/1
f 79/69/1 21/70/1 116/72/1
f 81/118/1 37/71/1 21/70/1
f 38/119/1 82/107/1 119/75/1
f 38/119/1 119/75/1 83/109/1
f 115/68/1 117/108/1 21/70/1
