# Blender v2.71 (sub 0) OBJ File: ''
# www.blender.org
o Grid_Grid.001
v 9.604434 0.246109 -16.015373
v 5.888601 0.246109 -16.057079
v 1.289432 0.246109 -16.401325
v 1.124114 0.246109 -19.004112
v 1.525352 0.246109 -14.665576
v -1.136817 0.246109 -17.245979
v 3.713299 0.246109 -18.927113
v -1.391898 0.246109 -6.183746
v 2.121881 0.246109 -4.994167
v 0.734307 0.246109 -2.190434
v -0.040840 0.246109 -10.630447
v 2.469741 0.246109 3.506565
v 9.782420 0.246109 -14.370234
v 9.969793 0.246109 -15.269147
v 8.690453 0.246109 -16.418030
v 3.810871 0.246109 -16.136753
v 3.966075 0.246109 -13.810602
v -0.559251 0.246109 -15.076063
v -0.765206 0.246109 -17.962860
v 3.486221 0.246109 -18.015099
v 0.142543 0.246109 -5.098437
v 2.519390 0.246109 -1.747184
v 0.875076 0.246109 -3.212463
v -0.087501 0.246109 -1.937431
v 1.797109 0.246109 4.173848
v -0.827241 0.246109 2.903146
v 6.429094 0.246109 -13.679484
v 2.305746 0.246109 -12.439993
v 0.072997 0.246109 -11.288651
v 0.889294 0.246109 -14.772141
v -2.667652 0.246109 -12.763765
v 2.516466 0.246109 -17.037289
v -3.184405 0.246109 -11.230559
v -2.739975 0.246109 -8.370664
v 0.363061 0.246109 -7.581714
v -2.729311 0.246109 -0.393180
v -1.097587 0.246109 -2.519526
v -2.253793 0.246109 1.305628
v 0.779881 0.246109 3.994257
vt 0.929648 0.979192
vt 0.840468 0.980385
vt 0.621032 0.917906
vt 0.307361 0.786225
vt 0.446562 0.885974
vt 0.251171 0.779856
vt 0.167613 0.452923
vt 0.301492 0.621598
vt 0.121134 0.767891
vt 0.025022 0.636274
vt 0.229155 0.854183
vt 0.309092 0.901357
vt 0.127464 0.959284
vt 0.344128 1.000000
vt 0.538061 0.792171
vt 0.746125 0.828504
vt 0.447146 0.707193
vt 0.000000 0.848055
vt 0.034151 0.563949
vt 0.353024 0.385121
vt 0.438284 0.122380
vt 0.640931 0.300384
vt 0.663857 0.255627
vt 1.000000 0.048876
vt 0.604471 0.231201
vt 0.501276 0.238204
vt 0.535050 0.060016
vt 0.876785 0.000000
vt 0.966957 0.009805
vt 0.707016 0.017980
vt 0.314340 0.592380
vt 0.683755 0.395392
vt 0.450837 0.472838
vt 1.000000 0.914008
vt 0.985091 0.954452
vt 0.006479 0.884076
vt 0.356198 0.958340
vt 0.516588 0.366149
vt 0.826429 0.267523
vn 0.000000 1.000000 0.000000
s off
f 1/1/1 15/2/1 2/3/1
f 5/4/1 2/3/1 16/5/1
f 5/4/1 30/6/1 34/7/1
f 5/4/1 34/7/1 29/8/1
f 34/7/1 18/9/1 31/10/1
f 3/11/1 32/12/1 4/13/1
f 7/14/1 4/13/1 32/12/1
f 5/4/1 17/15/1 27/16/1
f 29/8/1 28/17/1 5/4/1
f 6/18/1 30/6/1 3/11/1
f 31/10/1 33/19/1 34/7/1
f 8/20/1 34/7/1 36/21/1
f 23/22/1 10/23/1 12/24/1
f 24/25/1 37/26/1 36/21/1
f 10/23/1 36/21/1 38/27/1
f 10/23/1 39/28/1 25/29/1
f 25/29/1 12/24/1 10/23/1
f 10/23/1 38/27/1 26/30/1
f 10/23/1 26/30/1 39/28/1
f 11/31/1 29/8/1 34/7/1
f 11/31/1 34/7/1 8/20/1
f 9/32/1 35/33/1 8/20/1
f 36/21/1 37/26/1 8/20/1
f 13/34/1 1/1/1 27/16/1
f 1/1/1 13/34/1 14/35/1
f 1/1/1 2/3/1 27/16/1
f 34/7/1 30/6/1 18/9/1
f 3/11/1 4/13/1 19/36/1
f 3/11/1 19/36/1 6/18/1
f 20/37/1 7/14/1 32/12/1
f 2/3/1 5/4/1 27/16/1
f 17/15/1 5/4/1 28/17/1
f 18/9/1 30/6/1 6/18/1
f 21/38/1 9/32/1 8/20/1
f 23/22/1 9/32/1 21/38/1
f 9/32/1 23/22/1 12/24/1
f 10/23/1 24/25/1 36/21/1
f 11/31/1 8/20/1 35/33/1
f 22/39/1 9/32/1 12/24/1
